HIERARCHY
ROOT joint_Root
{
	OFFSET 0.0 0.0 0.0
	CHANNELS 6 Xposition Yposition Zposition Zrotation Xrotation Yrotation 
	JOINT Hips
	{
		OFFSET -0.726466 93.3139 -2.00062
		CHANNELS 6 Xposition Yposition Zposition Zrotation Xrotation Yrotation 
		JOINT Spine
		{
			OFFSET 15.7357 0.0 0.0
			CHANNELS 6 Xposition Yposition Zposition Zrotation Xrotation Yrotation 
			JOINT Chest
			{
				OFFSET 8.98455 -0.406207 0.0
				CHANNELS 6 Xposition Yposition Zposition Zrotation Xrotation Yrotation 
				JOINT Neck
				{
					OFFSET 16.3773 0.0 0.0
					CHANNELS 6 Xposition Yposition Zposition Zrotation Xrotation Yrotation 
					JOINT Head
					{
						OFFSET 6.45672 0.0 0.0
						CHANNELS 6 Xposition Yposition Zposition Zrotation Xrotation Yrotation 
						End Site
						{
							OFFSET 0.0 0.0 0.0
						}
					}
				}
				JOINT Shoulder_L
				{
					OFFSET 12.9942 -0.242716 4.98039
					CHANNELS 6 Xposition Yposition Zposition Zrotation Xrotation Yrotation 
					JOINT UpperArm_L
					{
						OFFSET 5.34809 0.0 0.0
						CHANNELS 6 Xposition Yposition Zposition Zrotation Xrotation Yrotation 
						JOINT LowerArm_L
						{
							OFFSET 24.3286 1.87007e-05 0.0
							CHANNELS 6 Xposition Yposition Zposition Zrotation Xrotation Yrotation 
							JOINT Hand_L
							{
								OFFSET 22.2916 0.0 0.0
								CHANNELS 6 Xposition Yposition Zposition Zrotation Xrotation Yrotation 
								End Site
								{
									OFFSET 0.0 0.0 0.0
								}
							}
						}
					}
				}
				JOINT Shoulder_R
				{
					OFFSET 12.9945 -0.242716 -4.98039
					CHANNELS 6 Xposition Yposition Zposition Zrotation Xrotation Yrotation 
					JOINT UpperArm_R
					{
						OFFSET -5.34813 0.0 0.0
						CHANNELS 6 Xposition Yposition Zposition Zrotation Xrotation Yrotation 
						JOINT LowerArm_R
						{
							OFFSET -24.3289 0.000322201 0.0
							CHANNELS 6 Xposition Yposition Zposition Zrotation Xrotation Yrotation 
							JOINT Hand_R
							{
								OFFSET -22.2915 -0.000108084 0.0
								CHANNELS 6 Xposition Yposition Zposition Zrotation Xrotation Yrotation 
								End Site
								{
									OFFSET 0.0 0.0 0.0
								}
							}
						}
					}
				}
			}
		}
		JOINT UpperLeg_L
		{
			OFFSET -2.19248 -6.46944 0.0
			CHANNELS 6 Xposition Yposition Zposition Zrotation Xrotation Yrotation 
			JOINT LowerLeg_L
			{
				OFFSET 39.0811 0.0 -1.23785e-05
				CHANNELS 6 Xposition Yposition Zposition Zrotation Xrotation Yrotation 
				JOINT Foot_L
				{
					OFFSET 40.9854 0.0 -1.26872e-05
					CHANNELS 6 Xposition Yposition Zposition Zrotation Xrotation Yrotation 
					JOINT Toes_L
					{
						OFFSET 11.7543 0.0 0.0
						CHANNELS 6 Xposition Yposition Zposition Zrotation Xrotation Yrotation 
						End Site
						{
							OFFSET 0.0 0.0 0.0
						}
					}
				}
			}
		}
		JOINT UpperLeg_R
		{
			OFFSET -2.19251 6.46944 0.0
			CHANNELS 6 Xposition Yposition Zposition Zrotation Xrotation Yrotation 
			JOINT LowerLeg_R
			{
				OFFSET -39.0811 -0.00228153 -0.0401928
				CHANNELS 6 Xposition Yposition Zposition Zrotation Xrotation Yrotation 
				JOINT Foot_R
				{
					OFFSET -40.9854 0.0 0.0
					CHANNELS 6 Xposition Yposition Zposition Zrotation Xrotation Yrotation 
					JOINT Toes_R
					{
						OFFSET -11.7543 0.0 0.0
						CHANNELS 6 Xposition Yposition Zposition Zrotation Xrotation Yrotation 
						End Site
						{
							OFFSET 0.0 0.0 0.0
						}
					}
				}
			}
		}
	}
}
MOTION
Frames:	4
Frame Time:	0.0333333
0.000000 0.000000 0.000000 0.000000 0.000000 -0.000000 -0.146693 92.319600 -1.571480 88.034300 -1.250040 4.867210 15.735700 0.000005 -0.000001 79.348100 86.064300 -78.774700 8.984550 -0.406207 -0.000000 -0.022374 -1.493550 1.145830 16.377300 -0.000001 -0.000001 5.409000 -2.022750 0.375174 6.456720 -0.000001 -0.000000 6.601640 -2.083220 -1.720020 12.994200 -0.242716 4.980390 -87.516600 -7.914750 -72.517500 5.348090 -0.000007 -0.000001 -84.523700 -28.440100 -87.729900 24.328600 0.000019 0.000005 12.318200 -0.325682 -91.491200 22.291600 -0.000001 0.000005 20.153200 5.582330 -10.337600 12.994500 -0.242716 -4.980390 90.529200 -1.693430 -72.643900 -5.348130 -0.000001 -0.000004 -75.921800 -24.967200 -96.390300 -24.328900 0.000322 -0.000009 19.810700 2.207080 -83.899000 -22.291500 -0.000108 -0.000004 22.143000 5.350100 -1.380250 -2.192480 -6.469440 -0.000000 -175.887000 -6.883970 -2.260180 39.081100 -0.000007 -0.000012 -0.091557 0.214236 23.140200 40.985400 -0.000006 -0.000013 0.105363 2.696020 -66.215900 11.754300 -0.000000 0.000003 -0.000036 -0.000425 -16.594100 -2.192510 6.469440 -0.000001 179.143000 14.806800 -179.059000 -39.081100 -0.002282 -0.040193 -0.012819 0.045789 19.418000 -40.985400 0.000008 0.000006 3.640550 6.538820 -65.851800 -11.754300 -0.000006 -0.000006 -0.006283 -0.073387 -19.560100
0.000000 0.000000 0.000000 0.000000 0.000000 -0.000000 -0.146687 92.326700 -1.648680 88.035200 -1.167720 4.786370 15.735700 0.000005 -0.000001 79.171300 86.048100 -78.604400 8.984550 -0.406207 -0.000000 0.005037 -1.522930 1.133280 16.377300 -0.000001 -0.000001 5.362590 -2.049540 0.360931 6.456720 -0.000001 -0.000000 6.412410 -2.086690 -1.770750 12.994200 -0.242716 4.980390 -87.533500 -7.847660 -72.490700 5.348090 -0.000007 -0.000001 -84.290800 -28.485000 -87.287300 24.328600 0.000019 0.000005 12.206400 -0.386570 -91.786500 22.291600 -0.000001 0.000005 20.123100 5.580890 -10.259900 12.994500 -0.242716 -4.980390 90.519000 -1.654300 -72.579000 -5.348130 -0.000001 -0.000004 -75.570800 -25.134300 -95.999100 -24.328900 0.000322 -0.000009 19.671500 2.097550 -84.155300 -22.291500 -0.000108 -0.000004 22.168300 5.348440 -1.330460 -2.192480 -6.469440 -0.000000 -175.917000 -6.817360 -2.412080 39.081100 -0.000007 -0.000012 -0.089340 0.209035 23.141600 40.985400 -0.000006 -0.000013 0.108491 2.676370 -66.153000 11.754300 -0.000000 0.000003 -0.000037 -0.000436 -16.594500 -2.192510 6.469440 -0.000001 179.164000 14.868900 -179.182000 -39.081100 -0.002282 -0.040193 -0.015541 0.053594 19.390400 -40.985400 0.000008 0.000006 3.510730 6.525160 -65.766000 -11.754300 -0.000006 -0.000006 -0.006061 -0.071391 -19.478600
0.000000 0.000000 0.000000 0.000000 0.000000 -0.000000 -0.137447 92.342800 -1.709860 88.064900 -1.147370 4.753420 15.735700 0.000005 -0.000001 79.300000 86.008200 -78.740100 8.984550 -0.406207 -0.000000 0.086608 -1.519390 1.120260 16.377300 -0.000001 -0.000001 5.173850 -2.061230 0.362179 6.456720 -0.000001 -0.000000 6.399710 -2.061200 -1.862330 12.994200 -0.242716 4.980390 -87.578500 -7.692490 -72.467500 5.348090 -0.000007 -0.000001 -83.784200 -28.552900 -86.414000 24.328600 0.000019 0.000005 11.935000 -0.496342 -92.347200 22.291600 -0.000001 0.000005 20.165600 5.580720 -10.250900 12.994500 -0.242716 -4.980390 90.481100 -1.526910 -72.510400 -5.348130 -0.000001 -0.000004 -74.930500 -25.273200 -95.273400 -24.328900 0.000322 -0.000009 19.461900 1.927950 -84.562700 -22.291500 -0.000108 -0.000004 22.065800 5.348220 -1.324000 -2.192480 -6.469440 -0.000000 -175.942000 -6.860060 -2.440520 39.081100 -0.000007 -0.000012 -0.090123 0.211924 23.038100 40.985400 -0.000006 -0.000013 0.126710 2.777850 -66.056100 11.754300 -0.000000 0.000003 -0.000036 -0.000424 -16.594100 -2.192510 6.469440 -0.000001 179.167000 14.854300 -179.247000 -39.081100 -0.002282 -0.040193 -0.013393 0.047599 19.350000 -40.985400 0.000008 0.000006 3.568860 6.481770 -65.706600 -11.754300 -0.000006 -0.000006 -0.006161 -0.072289 -19.515300
0.000000 0.000000 0.000000 0.000000 0.000000 -0.000000 -0.120221 92.354100 -1.782370 88.048300 -1.153010 4.740010 15.735700 0.000005 -0.000001 79.384200 85.963000 -78.810800 8.984550 -0.406207 -0.000000 0.177854 -1.524950 1.148480 16.377300 -0.000001 -0.000001 5.047890 -2.042110 0.315203 6.456720 -0.000001 -0.000000 6.293970 -1.986820 -1.908580 12.994200 -0.242716 4.980390 -87.636200 -7.504350 -72.459700 5.348090 -0.000007 -0.000001 -82.749500 -28.673600 -84.707400 24.328600 0.000019 0.000005 11.427500 -0.675587 -93.339100 22.291600 -0.000001 0.000005 20.351300 5.579840 -10.203700 12.994500 -0.242716 -4.980390 90.427600 -1.351940 -72.446400 -5.348130 -0.000001 -0.000004 -73.819300 -25.346100 -93.884000 -24.328900 0.000322 -0.000009 19.188000 1.646760 -85.280600 -22.291500 -0.000108 -0.000004 21.889000 5.346250 -1.265260 -2.192480 -6.469440 -0.000000 -175.962000 -6.843960 -2.499900 39.081100 -0.000007 -0.000012 -0.087728 0.206498 23.017700 40.985400 -0.000006 -0.000013 0.140164 2.717450 -65.992200 11.754300 -0.000000 0.000003 -0.000041 -0.000481 -16.596300 -2.192510 6.469440 -0.000001 179.188000 14.841600 -179.294000 -39.081100 -0.002282 -0.040193 -0.012519 0.045223 19.305400 -40.985400 0.000008 0.000006 3.592310 6.484750 -65.633400 -11.754300 -0.000006 -0.000006 -0.005969 -0.070552 -19.444400
